<?xml version="1.0" standalone="no"?>
<!DOCTYPE svg PUBLIC "-//W3C//DTD SVG 20010904//EN"
 "http://www.w3.org/TR/2001/REC-SVG-20010904/DTD/svg10.dtd">
<svg version="1.0" xmlns="http://www.w3.org/2000/svg"
 width="1080.000000pt" height="1080.000000pt" viewBox="0 0 1080.000000 1080.000000"
 preserveAspectRatio="xMidYMid meet">
<metadata>
Created by potrace 1.14, written by Peter Selinger 2001-2017
</metadata>
<g transform="translate(0.000000,1080.000000) scale(0.100000,-0.100000)"
fill="#000000" stroke="none">
<path d="M3086 9348 c-109 -223 -183 -390 -271 -608 -54 -135 -173 -456 -180
-485 -1 -5 -5 -17 -8 -25 -57 -142 -235 -800 -273 -1010 -2 -14 -11 -56 -20
-95 -16 -75 -18 -86 -29 -155 -4 -25 -9 -54 -11 -65 -8 -40 -23 -131 -29 -170
-17 -111 -35 -247 -39 -291 -7 -66 -17 -153 -21 -184 -2 -14 -7 -63 -10 -110
-4 -47 -8 -101 -10 -120 -20 -209 -26 -866 -11 -1169 4 -90 9 -169 11 -175 2
-6 6 -54 10 -107 3 -52 7 -106 10 -120 2 -13 6 -53 10 -89 3 -36 8 -78 10 -95
2 -16 7 -52 10 -80 10 -76 32 -227 55 -365 110 -672 342 -1446 633 -2110 69
-158 219 -471 224 -467 1 2 5 48 7 103 9 188 17 329 21 389 2 33 7 101 10 150
3 50 8 113 10 141 6 61 13 157 20 244 3 36 7 81 10 100 3 19 7 64 10 100 3 36
8 83 10 105 2 22 7 65 10 95 3 30 8 69 10 85 4 29 9 76 20 173 3 26 8 56 10
67 2 11 7 43 10 71 3 28 8 61 10 75 3 13 7 47 10 74 3 28 8 61 10 75 3 14 7
39 9 55 36 232 149 833 181 955 2 8 13 56 24 105 77 337 181 701 303 1060 52
154 149 415 177 480 5 11 26 61 46 110 21 50 45 108 55 130 93 208 182 395
189 394 9 0 71 -84 144 -196 209 -317 371 -733 471 -1208 26 -124 61 -326 71
-405 7 -52 11 -85 19 -155 7 -53 12 -105 21 -225 3 -41 8 -97 10 -125 2 -27 7
-122 11 -210 4 -95 11 -166 18 -174 8 -11 8 -13 -1 -8 -9 6 -11 -65 -8 -305 2
-172 6 -331 9 -353 2 -22 7 -74 11 -115 4 -41 8 -82 10 -91 1 -8 6 -41 9 -71
4 -31 9 -66 11 -79 3 -13 7 -37 10 -54 29 -173 48 -246 61 -241 13 5 498 301
574 350 19 13 159 99 310 191 151 92 294 180 316 194 23 14 93 58 157 96 126
76 115 62 133 180 18 115 94 465 139 640 50 195 149 520 180 590 8 17 34 80
59 141 93 231 258 523 364 646 206 239 353 349 576 429 91 33 102 35 110 14
20 -52 29 -499 14 -665 -12 -132 -46 -348 -74 -470 -3 -14 -9 -43 -14 -65 -5
-22 -20 -85 -35 -140 -14 -55 -28 -108 -30 -118 -14 -61 -112 -366 -161 -498
-20 -55 -34 -102 -31 -105 8 -8 116 41 224 102 440 248 744 698 813 1205 13
97 16 302 5 399 -16 147 -63 325 -126 475 -47 110 -132 255 -147 250 -7 -3
-11 -1 -8 4 5 7 -306 195 -439 267 -11 6 -92 52 -180 104 -148 86 -233 136
-310 180 -28 16 -372 216 -442 256 -172 101 -267 154 -276 154 -5 0 -60 -51
-121 -112 -168 -171 -327 -376 -453 -585 l-49 -81 -23 89 c-112 440 -373 940
-735 1413 -34 44 -64 84 -67 88 -3 5 -86 44 -185 86 -174 76 -524 247 -634
311 -30 17 -80 45 -110 61 -30 17 -62 35 -70 40 -8 5 -76 46 -150 91 -316 191
-659 423 -990 672 -63 48 -118 87 -123 87 -4 0 -50 -87 -101 -192z"/>
</g>
</svg>
